<svg id="Layer_1" data-name="Layer 1" xmlns="http://www.w3.org/2000/svg" viewBox="0 0 439.85 439.85"><defs><style>.cls-1{fill:#d7381e;}.cls-2{fill:#040303;}.cls-3{stroke:#000;stroke-linecap:round;stroke-linejoin:round;stroke-width:12.63px;fill-rule:evenodd;}</style></defs><title>vermillion</title><path class="cls-1" d="M271.85,112c4.07.89-.87,1.8,0,2.7-3.49,2-4.94,7-9.81,6.72,1.13,1.24,2.27,2.41,3.31,3.65a8.17,8.17,0,0,1,1.17,8.83c-1.16,2.9-3.83,3-6.47,2.94-3.35,0-6.48-1.11-9.7-1.82-4.27-1-7.9-3.71-12-4.66-8.24-1.92-15.07,2.4-21.77,6.46-.93.57-1.15,1.69-1.48,2.7-1.44,4.44-6.63,7.44-10.53,5.19-3.56-2.05-7.26-2.55-11-3.27-2.36-.45-3.41-1.63-3.26-4,2.52-6,5.1-11.87,10.12-16.36a9.54,9.54,0,0,1,3.61-2.3c.08,1.5.15,3,.25,5.08,1.64-2.66,2.92-4.73,3.49-7.16.78-1.32,2.15-1.6,3.47-2,.6,2.33-1.92,4.44-.14,7.33-.14-4,2.8-6.1,3.83-9.15l-.1.11.94-.92a5.18,5.18,0,0,1,3.61-1.86c.56,2.3-1.89,4.41-.21,7.22l6.47-9c.72-1.66,2.13-1.93,3.72-1.84a21.44,21.44,0,0,0-1.33,2.78c-.46,1.33-2.32,2.88-.94,4,1.59,1.27,2.22-1.26,3.39-1.94,1.54-.89,2-3.38,4.38-3,0,.59-.09,1.18-.14,1.77-.65.26-1,.9-.57,1.34.63.61.82-.38,1.21-.67,2.85-1.3,5.29-3,6.54-6.06.67-1.43,1.89-.86,3-.82-.95,1.66-2.13,3.24-2,5.31-.65.26-1,.9-.57,1.34.63.6.82-.39,1.21-.67l5.73-6.52,0-1.31H252l-4.5,10.4c1.11.48,1.51,0,2-.23,4.49-1.69,4.8-7.42,9.05-9.31l.29-.14.23.23c-.23,3.36-3.07,5.67-3.58,8.92-.65.26-1,.9-.57,1.34.63.61.82-.39,1.21-.67,4.54-2.26,8.5-5.86,13.91-6.16,1.94,0,1.58.89.75,2-3.28,3.18-7.57,4.95-11.1,7.87C263.74,114.78,268.41,115.06,271.85,112Z" transform="translate(-6.58 -12.58)"/><path class="cls-2" d="M258.55,103c-4.25,1.89-4.56,7.62-9.05,9.31-.52.2-.92.71-2,.23l4.5-10.4h6.32A2,2,0,0,1,258.55,103Z" transform="translate(-6.58 -12.58)"/><path class="cls-1" d="M200.34,181.87c-2.44-7.5,0-16.37-6.34-22.77,2.28-3.14,5.18-4.95,9.23-4.21a3.31,3.31,0,0,0,3-.45c4.59-4.49,10.49-3.12,15.41-2.28,11.68,2,23.45,3.19,35.12,5.14,5,.84,10.77-.05,14.83,3.14,6.22,4.89,12.93,6.94,20.65,7.43,5,.32,8.69,3.26,10.74,8.32,2,4.86,2.08,10.32,5.19,14.77a39.7,39.7,0,0,1,7,18.2c2,16,2.45,31.46-8.54,45-1.92,2.37-4.38,4.85-4.7,8-.88,9.08-5.89,16.39-10.82,23.3-8.63,12.09-21.95,19-34.43,26.12-7.42,4.25-16.41,5.78-24.4,9.64-4.79,2.31-11.49,3.62-15.56-3.12-.93-1.55-2.76-1.06-4.15-.78-2,.4-1.13,2.15-1.21,3.38-.1,1.5,0,3,0,4.51-.06,2.77-1.93,3.55-4,2.65-9.29-4.12-15.38-8.77-15.44-20.21-.06-12.63,2.71-24.74,5.36-36.89,1.91-8.78,1.1-18,4.6-26.51,1.26-3.06,2.91-6,3.59-9.23,2.41-11.39,2.32-23,1.76-34.55a22.61,22.61,0,0,0-4-11.73C201.94,186.71,200.36,184.58,200.34,181.87Z" transform="translate(-6.58 -12.58)"/><path class="cls-2" d="M200.34,181.87c0,2.71,1.6,4.84,2.95,6.91a22.61,22.61,0,0,1,4,11.73c.56,11.59.65,23.16-1.76,34.55-.68,3.19-2.33,6.17-3.59,9.23-3.5,8.49-2.69,17.73-4.6,26.51-2.65,12.15-5.42,24.26-5.36,36.89.06,11.44,6.15,16.09,15.44,20.21,2,.9,3.92.12,4-2.65,0-1.5-.07-3,0-4.51.08-1.23-.74-3,1.21-3.38,1.39-.28,3.22-.77,4.15.78,4.07,6.74,10.77,5.43,15.56,3.12,8-3.86,17-5.39,24.4-9.64,12.48-7.16,25.8-14,34.43-26.12,4.93-6.91,9.94-14.22,10.82-23.3.32-3.2,2.78-5.68,4.7-8,11-13.53,10.56-29,8.54-45a39.7,39.7,0,0,0-7-18.2c-3.11-4.45-3.22-9.91-5.19-14.77-2.05-5.06-5.71-8-10.74-8.32-7.72-.49-14.43-2.54-20.65-7.43-4.06-3.19-9.84-2.3-14.83-3.14-11.67-2-23.44-3.14-35.12-5.14-4.92-.84-10.82-2.21-15.41,2.28a3.31,3.31,0,0,1-3,.45c-4-.74-6.95,1.07-9.23,4.21-.75,0-1.7.25-2.22-.11-8.69-6-19.41-3.7-28.76-7a4.46,4.46,0,0,1-2.18-1.44c5.41-2.68,11.33-3.37,17.15-4.42,4.6-.83,9.58-1,10.74-7.14.11-.58,1-1,1.56-1.51-.15,2.33.9,3.51,3.26,4,3.76.72,7.46,1.22,11,3.27,3.9,2.25,9.09-.75,10.53-5.19.33-1,.55-2.13,1.48-2.7,6.7-4.06,13.53-8.38,21.77-6.46,4.1.95,7.73,3.7,12,4.66,3.22.71,6.35,1.8,9.7,1.82,2.64,0,5.31,0,6.47-2.94a8.17,8.17,0,0,0-1.17-8.83c-1-1.24-2.18-2.41-3.31-3.65,4.87.27,6.32-4.69,9.81-6.72,1.5,1,3.2,2.15,3.51,3.92,1,5.81,5.66,9,9.14,13a95.06,95.06,0,0,1,19.06,33.05c2,6,1.75,12.32,4.26,18.1a7.39,7.39,0,0,0,1.49,2.64c8.74,8.21,10.45,19.67,14.05,30.27,3.12,9.24,3.2,18.88,4.15,28.42.32,3.21,0,6.28-2.17,8.82-.84,1-1.53,2.74-3.53,1.24-.87-.66-1.9.14-2.73.93-5.45,5.22-10.13,10.8-12.34,18.36a33.75,33.75,0,0,1-6.11,11.46c-5,6.18-8,14-15.18,18.5-1.21.76-2.73,2.71-1.49,4.58s2.82,1.24,4.66.29a6.06,6.06,0,0,1,7,1.33c2.8,2.66,5.71,2.61,9.16,1.74,8.07-2,15.67-5.46,24.18-6.31,6.51-.64,12.53-4.08,18.41-7.85,1.15,2.78,3.81,3.43,6.88,2.9,6.8-1.17,13.6-2.36,20.37-3.71,2-.41,4.1-1.17,5.33-3.1.79-1.26,1.2-2.79,3.34-1.76,1.7.81,3.3,1.49,3.42,3.68.22,3.78-.75,7.49-3.41,9.93-2.46,2.26-5.73.9-8.39-.68-2.46-1.46-5-1.06-7.45-.51a213.58,213.58,0,0,1-26.71,4.36c-4.91.43-9.11,3-13.58,4.68-7.21,2.68-14.42,5.18-22.07,6.18-4.48.58-7.6,2.42-8,7.53-.19,2.54-1.11,5.36-4,5.95a9.22,9.22,0,0,1-8.36-2.37c-5.12-4.79-7-5.16-13.22-2.18-7.43,3.53-14.8,7.17-22.16,10.85-2.85,1.43-5.58,3.27-7.12,6.09-3.56,6.51-11,9.32-14.66,15.69-.6,1-1.45.64-2.34.49-4.27-.75-7.07,1.25-7.64,5.72-.67,5.22-.7,10.55-1.7,15.7s-2.52,10.43-2.09,15.87c.14,1.79-.67,2.59-2.36,2.31-11.45-1.88-23.16-.59-35.09-2.68,4.29-6.81,4-14.38,5-21.67.54-4-1.13-5-5.16-4.21-2.74.55-5.13,2.4-8.1,2a1.8,1.8,0,0,0-1.44.83c-3.65,7.58-11.8,7.26-18.09,9.72-3.23,1.27-5.56-2.91-6.87-6.39-1.09-2.91-.61-4.41,2.11-6.21,3.41-2.25,7.27-2.56,10.91-3.68,5.51-1.7,10.55-4.3,15.76-6.63,4.15-1.85,5.83-4.6,5.68-9.14a504.41,504.41,0,0,0-4.83-52.51,49.22,49.22,0,0,1-.28-12.12c1.57-14.56,2.39-29.18,5.73-43.55,1.5-6.44,1.33-13.27,2-19.93a9.42,9.42,0,0,1,.49-2.6C184,210.2,188,198,198,189.15c1-.87.67-1.91.72-2.91C198.74,184.58,198.66,182.9,200.34,181.87Z" transform="translate(-6.58 -12.58)"/><path class="cls-2" d="M270,106.56c-5.41.3-9.37,3.9-13.91,6.16l-.64-.67c.51-3.25,3.35-5.56,3.58-8.92C263.12,103,266.4,105.38,270,106.56Z" transform="translate(-6.58 -12.58)"/><path class="cls-2" d="M234.85,108.47c-2.41-.37-2.84,2.12-4.38,3-1.17.68-1.8,3.21-3.39,1.94-1.38-1.1.48-2.65.94-4a21.44,21.44,0,0,1,1.33-2.78,15.79,15.79,0,0,1,6.29-1.31,2.57,2.57,0,0,0-.85,3.2Z" transform="translate(-6.58 -12.58)"/><path class="cls-2" d="M271.85,112c-3.44,3.08-8.11,2.8-12.16,4.4,3.53-2.92,7.82-4.69,11.1-7.87C270.93,109.73,270.94,111,271.85,112Z" transform="translate(-6.58 -12.58)"/><path class="cls-2" d="M225.63,108.5l-6.47,9c-1.68-2.81.77-4.92.21-7.22C221.16,108.59,223.37,108.47,225.63,108.5Z" transform="translate(-6.58 -12.58)"/><path class="cls-2" d="M249.21,103.49,243.48,110l-.64-.67c-.12-2.07,1.06-3.65,2-5.31A7.43,7.43,0,0,1,249.21,103.49Z" transform="translate(-6.58 -12.58)"/><path class="cls-2" d="M241.89,104.85c-1.25,3-3.69,4.76-6.54,6.06l-.64-.67c0-.59.09-1.18.14-1.77l-.06.08c1.32-.84,2.72-1.6,2.74-3.46Z" transform="translate(-6.58 -12.58)"/><path class="cls-2" d="M214.92,112.92c-1,3-4,5.18-3.83,9.15-1.78-2.89.74-5,.14-7.33C212.27,113.75,213.33,112.81,214.92,112.92Z" transform="translate(-6.58 -12.58)"/><path class="cls-2" d="M207.76,116.72c-.57,2.43-1.85,4.5-3.49,7.16-.1-2.09-.17-3.58-.25-5.08A8.61,8.61,0,0,1,207.76,116.72Z" transform="translate(-6.58 -12.58)"/><path class="cls-1" d="M237.53,105.09c0,1.86-1.42,2.62-2.74,3.46a2.57,2.57,0,0,1,.85-3.2Z" transform="translate(-6.58 -12.58)"/><path class="cls-2" d="M215.76,112.11l-.94.92C214.61,112.19,215.2,112.16,215.76,112.11Z" transform="translate(-6.58 -12.58)"/><path class="cls-2" d="M243.48,110c-.39.28-.58,1.27-1.21.67-.46-.44-.08-1.08.57-1.34Z" transform="translate(-6.58 -12.58)"/><path class="cls-2" d="M235.35,110.91c-.39.29-.58,1.28-1.21.67-.47-.44-.08-1.08.57-1.34Z" transform="translate(-6.58 -12.58)"/><path class="cls-2" d="M256.13,112.72c-.39.28-.58,1.28-1.21.67-.47-.44-.08-1.08.57-1.34Z" transform="translate(-6.58 -12.58)"/><g id="layer1"><g id="g4557"><path id="path4504" d="M226.5,33.54c-109.69,0-199,89.31-199,199s89.31,199,199,199,199-89.31,199-199S336.15,33.54,226.5,33.54Zm-.3,17.67h0a13.28,13.28,0,1,1-.39,0ZM196.62,72.76l20.16,21.13a11.85,11.85,0,0,0,16.83.38l22.56-21.51a162.42,162.42,0,0,1,26.42,7.5,14.2,14.2,0,0,1,2.34.69,158.93,158.93,0,0,1,16.29,7.46l.95.5q6.21,3.33,12.08,7.17c.86.56,1.71,1.13,2.56,1.7q5,3.41,9.7,7.15c1.32,1,2.62,2.13,3.91,3.22q3.87,3.27,7.52,6.79c1.62,1.56,3.21,3.16,4.77,4.78q3.07,3.21,6,6.6c1.71,2,3.38,4.05,5,6.14,1.35,1.73,2.66,3.5,3.94,5.29l.27.41q4.61,6.36,8.57,13.15L351,186.16a12,12,0,0,0,6.07,15.78l29.71,13.18a161,161,0,0,1,.34,27.94h-.2a160.33,160.33,0,0,1-31,83.64h.28A161,161,0,0,1,341.32,344L313.67,338a12,12,0,0,0-14.18,9.18l-6.57,30.64q-7.14,3.23-14.56,5.73l-.1.05-.41.15-.29.1a162,162,0,0,1-98.11,1.47,13.87,13.87,0,0,1-2.94-1.29,160.52,160.52,0,0,1-17.9-6.84L152,346.57a11.91,11.91,0,0,0-14.14-9.18l-27.07,5.81q-4.42-4.67-8.47-9.66a9.28,9.28,0,0,1-2.11-2A160.45,160.45,0,0,1,65.06,231.07a13.71,13.71,0,0,1,.39-3.28q.15-7,.89-14.06l28.2-12.55a11.92,11.92,0,0,0,6.07-15.74L94.8,172.35h.1C89.58,162.87,84,154.45,84,154.45a167,167,0,0,1,13.89-20.84,161.45,161.45,0,0,1,82-56.93,9.33,9.33,0,0,1,2.59-.38Q189.45,74.22,196.62,72.76ZM70.13,169.66h0a12.94,12.94,0,1,1-.38,0Zm312.1.59h0a12.94,12.94,0,1,1-.39,0h.38ZM129.27,354h0a13.28,13.28,0,1,1-.38,0Zm193.83.59h0a13.09,13.09,0,1,1-13.47,13.09h0a13.08,13.08,0,0,1,13.08-13.09Z" transform="translate(-6.58 -12.58)"/><path id="path4506" class="cls-3" d="M414.35,232.5c0,103.75-84.1,187.85-187.85,187.85S38.65,336.25,38.65,232.5h0c0-103.75,84.1-187.85,187.85-187.85h0C330.25,44.65,414.35,128.75,414.35,232.5Zm-3.53-18.14,29.29,18.14-29.29,18.14L436,274.17l-32.25,12.08,20.12,28-34.05,5.56,14.31,31.4L369.65,350l7.91,33.58L344,375.65l1.22,34.47-31.4-14.31-5.56,34.05-28-20.12L268.17,442l-23.53-25.17L226.5,446.11l-18.14-29.29L184.83,442l-12.08-32.25-28,20.12-5.56-34.05-31.4,14.31L109,375.65l-33.58,7.91L83.35,350,48.88,351.2l14.31-31.4-34-5.56,20.12-28L17,274.17l25.17-23.53L12.89,232.5l29.29-18.14L17,190.83l32.25-12.08-20.12-28,34.05-5.56L48.88,113.8,83.35,115,75.44,81.44,109,89.35,107.8,54.88l31.4,14.31,5.56-34,28,20.12L184.83,23l23.53,25.17L226.5,18.89l18.14,29.29L268.17,23l12.08,32.25,28-20.12,5.56,34.05,31.4-14.31L344,89.35l33.58-7.91L369.65,115l34.47-1.22-14.31,31.4,34.05,5.56-20.12,28L436,190.83Z" transform="translate(-6.58 -12.58)"/></g></g></svg>